# xmcd CD database file
#
# Track frame offsets:
#	150
#	15120
#	30676
#	46000
#	58863
#	75642
#	88679
#	102995
#	118042
#	134307
#	145893
#	157643
#	172249
#	185246
#	199039
#	213085
#	229030
#	241626
#	256554
#
# Disc length: 3642 seconds
#
# Revision: 1
# Processed by: cddbd v1.5.2PL0 Copyright (c) Steve Scherf et al.
# Submitted via: CDex 1.70beta2
#
DISCID=ed0e3813
DTITLE=Various Artist - NU COUNTRY TRAXX 213
DYEAR=2017
DGENRE=Country
TTITLE0=Kenny Chesney - Bar At The End Of The World
TTITLE1=Luke Bryan - Fast
TTITLE2=Jason Aldean - Any Ol' Barstool
TTITLE3=Miranda Lambert - We Should Be Friends
TTITLE4=Aaron Watson - Outta Style
TTITLE5=Seth Ennis - Woke Up In Nashville
TTITLE6=Michael Tyler - They Can't See
TTITLE7=Shane Owens - All The Beer In Alabama
TTITLE8=Brothers Osborne - It Ain't My Fault
TTITLE9=Candi Carpenter - Burn The Bed
TTITLE10=Southern Halo - Living Like That
TTITLE11=Tim Elliot - What's Not To Love
TTITLE12=Mo Pitney - Everywhere
TTITLE13=April Kry - Get Ready To Miss Me
TTITLE14=Darryl Ryan - Not Enough Town
TTITLE15=Kaylee Rutland - Pick Me Up
TTITLE16=Jamie Stever - This Life Ain't For Everyone
TTITLE17=Caroline Jones - Tough Guys
TTITLE18=Brian Milson - Gonna Be A Song Someday
EXTD=YEAR: 2017
EXTT0=
EXTT1=
EXTT2=
EXTT3=
EXTT4=
EXTT5=
EXTT6=
EXTT7=
EXTT8=
EXTT9=
EXTT10=
EXTT11=
EXTT12=
EXTT13=
EXTT14=
EXTT15=
EXTT16=
EXTT17=
EXTT18=
PLAYORDER=
